<?xml version="1.0" encoding="UTF-8" standalone="no"?>
<!DOCTYPE svg PUBLIC "-//W3C//DTD SVG 1.1//EN"
 "http://www.w3.org/Graphics/SVG/1.1/DTD/svg11.dtd">
<!-- Generated by graphviz version 2.40.1 (20161225.0304)
 -->
<!-- Title: MuseuVirtualDoArtista Pages: 1 -->
<svg width="1257pt" height="817pt"
 viewBox="0.00 0.00 1257.17 817.38" xmlns="http://www.w3.org/2000/svg" xmlns:xlink="http://www.w3.org/1999/xlink">
<g id="graph0" class="graph" transform="scale(1 1) rotate(0) translate(4 813.3848)">
<title>MuseuVirtualDoArtista</title>
<polygon fill="#ffffff" stroke="transparent" points="-4,4 -4,-813.3848 1253.1737,-813.3848 1253.1737,4 -4,4"/>
<!-- Banksy -->
<g id="node1" class="node">
<title>Banksy</title>
<g id="a_node1"><a xlink:href="file:Artista Banksy.html" xlink:title="Banksy">
<ellipse fill="#8acc7a" stroke="#8acc7a" cx="110" cy="-18.3848" rx="45.9239" ry="18.2703"/>
<text text-anchor="middle" x="110" y="-14.5848" font-family="Times,serif" font-size="16.00" fill="#000000">Banksy</text>
</a>
</g>
</g>
<!-- Balloon Girl -->
<g id="node2" class="node">
<title>Balloon Girl</title>
<g id="a_node2"><a xlink:href="file:Obra Balloon Girl.html" xlink:title="Balloon Girl">
<ellipse fill="#ff6666" stroke="#ff6666" cx="463" cy="-50.3848" rx="68.6788" ry="18.2703"/>
<text text-anchor="middle" x="463" y="-46.5848" font-family="Times,serif" font-size="16.00" fill="#000000">Balloon Girl</text>
</a>
</g>
</g>
<!-- Banksy&#45;&gt;Balloon Girl -->
<g id="edge1" class="edge">
<title>Banksy&#45;&gt;Balloon Girl</title>
<path fill="none" stroke="#000000" d="M155.0662,-22.4701C213.7047,-27.7858 316.9952,-37.1492 387.6465,-43.5539"/>
<polygon fill="#000000" stroke="#000000" points="387.5493,-47.0593 397.8245,-44.4765 388.1813,-40.0879 387.5493,-47.0593"/>
<text text-anchor="middle" x="286.5" y="-43.5848" font-family="Times,serif" font-size="16.00" fill="#000000">produziu</text>
</g>
<!-- Balloon Girl Shredding -->
<g id="node3" class="node">
<title>Balloon Girl Shredding</title>
<g id="a_node3"><a xlink:href="file:Evento Balloon Girl Shredding.html" xlink:title="Balloon Girl Shredding">
<ellipse fill="#7fffff" stroke="#7fffff" cx="802.0868" cy="-29.3848" rx="118.1737" ry="18.2703"/>
<text text-anchor="middle" x="802.0868" y="-25.5848" font-family="Times,serif" font-size="16.00" fill="#000000">Balloon Girl Shredding</text>
</a>
</g>
</g>
<!-- Banksy&#45;&gt;Balloon Girl Shredding -->
<g id="edge2" class="edge">
<title>Banksy&#45;&gt;Balloon Girl Shredding</title>
<path fill="none" stroke="#000000" d="M155.0494,-14.7221C237.8566,-8.5232 419.8199,2.6172 573,-5.3848 615.0615,-7.582 661.2901,-12.0337 701.1372,-16.5129"/>
<polygon fill="#000000" stroke="#000000" points="700.7919,-19.9961 711.1239,-17.6509 701.5845,-13.0411 700.7919,-19.9961"/>
<text text-anchor="middle" x="463" y="-10.5848" font-family="Times,serif" font-size="16.00" fill="#000000">participou</text>
</g>
<!-- Balloon Girl&#45;&gt;Balloon Girl Shredding -->
<g id="edge13" class="edge">
<title>Balloon Girl&#45;&gt;Balloon Girl Shredding</title>
<path fill="none" stroke="#000000" d="M531.6862,-51.9037C571.0537,-52.225 621.3626,-51.7068 666,-48.3848 680.2068,-47.3275 695.191,-45.7295 709.8167,-43.9007"/>
<polygon fill="#000000" stroke="#000000" points="710.402,-47.3542 719.8709,-42.6015 709.5048,-40.412 710.402,-47.3542"/>
<text text-anchor="middle" x="628.5" y="-57.5848" font-family="Times,serif" font-size="16.00" fill="#000000">vendida em</text>
</g>
<!-- Balloon Girl Shredding&#45;&gt;Balloon Girl -->
<g id="edge14" class="edge">
<title>Balloon Girl Shredding&#45;&gt;Balloon Girl</title>
<path fill="none" stroke="#000000" d="M690.4451,-23.3528C658.2916,-22.8186 623.2055,-23.3916 591,-26.3848 569.3318,-28.3986 545.8632,-32.2908 525.011,-36.3641"/>
<polygon fill="#000000" stroke="#000000" points="524.1205,-32.9729 515.0039,-38.3709 525.4969,-39.8363 524.1205,-32.9729"/>
<text text-anchor="middle" x="628.5" y="-31.5848" font-family="Times,serif" font-size="16.00" fill="#000000">vendeu</text>
</g>
<!-- Verrocchio -->
<g id="node4" class="node">
<title>Verrocchio</title>
<g id="a_node4"><a xlink:href="file:Artista Verrocchio.html" xlink:title="&lt;TABLE&gt;">
<polygon fill="#8acc7a" stroke="#000000" points="220,-671.3848 0,-671.3848 0,-435.3848 220,-435.3848 220,-671.3848"/>
<image xlink:href="Imagens/verrocchio.png" width="196px" height="196px" preserveAspectRatio="xMinYMin meet" x="12" y="-663.385"/>
<text text-anchor="start" x="74" y="-448.5848" font-family="Times,serif" font-size="16.00" fill="#000000">Verrocchio</text>
</a>
</g>
</g>
<!-- da Vinci -->
<g id="node5" class="node">
<title>da Vinci</title>
<g id="a_node5"><a xlink:href="file:Artista da Vinci.html" xlink:title="&lt;TABLE&gt;">
<polygon fill="#8acc7a" stroke="#000000" points="573,-630.3848 353,-630.3848 353,-394.3848 573,-394.3848 573,-630.3848"/>
<image xlink:href="Imagens/davinci.jpg" width="196px" height="196px" preserveAspectRatio="xMinYMin meet" x="365" y="-622.385"/>
<text text-anchor="start" x="435.5" y="-407.5848" font-family="Times,serif" font-size="16.00" fill="#000000">da Vinci</text>
</a>
</g>
</g>
<!-- Verrocchio&#45;&gt;da Vinci -->
<g id="edge3" class="edge">
<title>Verrocchio&#45;&gt;da Vinci</title>
<path fill="none" stroke="#000000" d="M220.0841,-558.685C256.8122,-558.7876 297.8362,-557.0898 335,-551.3848 337.5617,-550.9915 340.1432,-550.5585 342.7379,-550.0899"/>
<polygon fill="#000000" stroke="#000000" points="343.6593,-553.4759 352.7977,-548.1149 342.3107,-546.607 343.6593,-553.4759"/>
<text text-anchor="middle" x="286.5" y="-564.5848" font-family="Times,serif" font-size="16.00" fill="#000000">ensinou</text>
</g>
<!-- O Batismo de Cristo -->
<g id="node6" class="node">
<title>O Batismo de Cristo</title>
<g id="a_node6"><a xlink:href="file:Obra O Batismo de Cristo.html" xlink:title="&lt;TABLE&gt;">
<polygon fill="#ff6666" stroke="#000000" points="912.0868,-809.3848 692.0868,-809.3848 692.0868,-573.3848 912.0868,-573.3848 912.0868,-809.3848"/>
<image xlink:href="Imagens/batismocristo.png" width="196px" height="196px" preserveAspectRatio="xMinYMin meet" x="704.087" y="-801.385"/>
<text text-anchor="start" x="737.0868" y="-586.5848" font-family="Times,serif" font-size="16.00" fill="#000000">O Batismo de Cristo</text>
</a>
</g>
</g>
<!-- Verrocchio&#45;&gt;O Batismo de Cristo -->
<g id="edge4" class="edge">
<title>Verrocchio&#45;&gt;O Batismo de Cristo</title>
<path fill="none" stroke="#000000" d="M220.0372,-598.2308C261.1556,-613.4112 308.6407,-629.1052 353,-639.3848 462.8107,-664.8317 590.7511,-678.0927 681.9198,-684.8317"/>
<polygon fill="#000000" stroke="#000000" points="681.7883,-688.3312 692.0149,-685.5623 682.2937,-681.3495 681.7883,-688.3312"/>
<text text-anchor="middle" x="463" y="-680.5848" font-family="Times,serif" font-size="16.00" fill="#000000">produziu</text>
</g>
<!-- da Vinci&#45;&gt;Verrocchio -->
<g id="edge5" class="edge">
<title>da Vinci&#45;&gt;Verrocchio</title>
<path fill="none" stroke="#000000" d="M352.8879,-518.2762C316.2502,-520.8825 275.2877,-524.4955 238,-529.3848 235.45,-529.7191 232.8739,-530.0712 230.279,-530.4387"/>
<polygon fill="#000000" stroke="#000000" points="229.5744,-527.0047 220.193,-531.9279 230.597,-533.9296 229.5744,-527.0047"/>
<text text-anchor="middle" x="286.5" y="-534.5848" font-family="Times,serif" font-size="16.00" fill="#000000">aprendeu com</text>
</g>
<!-- da Vinci&#45;&gt;Verrocchio -->
<g id="edge6" class="edge">
<title>da Vinci&#45;&gt;Verrocchio</title>
<path fill="none" stroke="#000000" d="M342.8692,-493.2294C308.7205,-490.9311 271.6697,-491.4573 238,-498.3848 235.3163,-498.9369 232.6195,-499.5479 229.9159,-500.2115"/>
<polygon fill="#000000" stroke="#000000" points="342.6551,-496.7231 352.891,-493.9891 343.1842,-489.7431 342.6551,-496.7231"/>
<polygon fill="#000000" stroke="#000000" points="228.8664,-496.8691 220.1092,-502.8325 230.6739,-503.6317 228.8664,-496.8691"/>
<text text-anchor="middle" x="286.5" y="-503.5848" font-family="Times,serif" font-size="16.00" fill="#000000">colaborou com</text>
</g>
<!-- da Vinci&#45;&gt;O Batismo de Cristo -->
<g id="edge9" class="edge">
<title>da Vinci&#45;&gt;O Batismo de Cristo</title>
<path fill="none" stroke="#000000" d="M573.0918,-570.5009C608.2116,-589.0403 647.2283,-609.6368 682.9588,-628.4985"/>
<polygon fill="#000000" stroke="#000000" points="681.4902,-631.6809 691.9676,-633.2541 684.7581,-625.4905 681.4902,-631.6809"/>
<text text-anchor="middle" x="628.5" y="-623.5848" font-family="Times,serif" font-size="16.00" fill="#000000">produziu</text>
</g>
<!-- Mona Lisa -->
<g id="node7" class="node">
<title>Mona Lisa</title>
<g id="a_node7"><a xlink:href="file:Obra Mona Lisa.html" xlink:title="&lt;TABLE&gt;">
<polygon fill="#ff6666" stroke="#000000" points="912.0868,-555.3848 692.0868,-555.3848 692.0868,-319.3848 912.0868,-319.3848 912.0868,-555.3848"/>
<image xlink:href="Imagens/monalisa.png" width="196px" height="196px" preserveAspectRatio="xMinYMin meet" x="704.087" y="-547.385"/>
<text text-anchor="start" x="767.5868" y="-332.5848" font-family="Times,serif" font-size="16.00" fill="#000000">Mona Lisa</text>
</a>
</g>
</g>
<!-- da Vinci&#45;&gt;Mona Lisa -->
<g id="edge7" class="edge">
<title>da Vinci&#45;&gt;Mona Lisa</title>
<path fill="none" stroke="#000000" d="M573.0918,-488.0344C607.914,-480.3324 646.5673,-471.7829 682.0497,-463.9349"/>
<polygon fill="#000000" stroke="#000000" points="682.9595,-467.3183 691.9676,-461.7412 681.4477,-460.4835 682.9595,-467.3183"/>
<text text-anchor="middle" x="628.5" y="-489.5848" font-family="Times,serif" font-size="16.00" fill="#000000">produziu</text>
</g>
<!-- A última ceia -->
<g id="node8" class="node">
<title>A última ceia</title>
<g id="a_node8"><a xlink:href="file:Obra A última ceia.html" xlink:title="&lt;TABLE&gt;">
<polygon fill="#ff6666" stroke="#000000" points="912.0868,-301.3848 692.0868,-301.3848 692.0868,-65.3848 912.0868,-65.3848 912.0868,-301.3848"/>
<image xlink:href="Imagens/aultimaceia.jpg" width="196px" height="196px" preserveAspectRatio="xMinYMin meet" x="704.087" y="-293.385"/>
<text text-anchor="start" x="759.5868" y="-78.5848" font-family="Times,serif" font-size="16.00" fill="#000000">A última ceia</text>
</a>
</g>
</g>
<!-- da Vinci&#45;&gt;A última ceia -->
<g id="edge8" class="edge">
<title>da Vinci&#45;&gt;A última ceia</title>
<path fill="none" stroke="#000000" d="M573.0918,-405.5679C608.8069,-370.9152 648.552,-332.3524 684.7727,-297.2092"/>
<polygon fill="#000000" stroke="#000000" points="687.2278,-299.7038 691.9676,-290.2283 682.3533,-294.6799 687.2278,-299.7038"/>
<text text-anchor="middle" x="628.5" y="-392.5848" font-family="Times,serif" font-size="16.00" fill="#000000">produziu</text>
</g>
<!-- Exposição no Louvre -->
<g id="node11" class="node">
<title>Exposição no Louvre</title>
<g id="a_node11"><a xlink:href="file:Evento Exposição no Louvre.html" xlink:title="&lt;TABLE&gt;">
<polygon fill="#7fffff" stroke="#000000" points="1249.1737,-554.3848 1029.1737,-554.3848 1029.1737,-318.3848 1249.1737,-318.3848 1249.1737,-554.3848"/>
<image xlink:href="Imagens/louvre.jpg" width="196px" height="196px" preserveAspectRatio="xMinYMin meet" x="1041.17" y="-546.385"/>
<text text-anchor="start" x="1070.1737" y="-331.5848" font-family="Times,serif" font-size="16.00" fill="#000000">Exposição no Louvre</text>
</a>
</g>
</g>
<!-- Mona Lisa&#45;&gt;Exposição no Louvre -->
<g id="edge11" class="edge">
<title>Mona Lisa&#45;&gt;Exposição no Louvre</title>
<path fill="none" stroke="#000000" d="M912.4617,-437.0573C946.5396,-436.9562 984.2336,-436.8444 1018.942,-436.7415"/>
<polygon fill="#000000" stroke="#000000" points="1019.1373,-440.241 1029.1268,-436.7112 1019.1165,-433.241 1019.1373,-440.241"/>
<text text-anchor="middle" x="974.6737" y="-442.5848" font-family="Times,serif" font-size="16.00" fill="#000000">exposta em</text>
</g>
<!-- Van Gogh -->
<g id="node9" class="node">
<title>Van Gogh</title>
<g id="a_node9"><a xlink:href="file:Artista Van Gogh.html" xlink:title="Van Gogh">
<ellipse fill="#8acc7a" stroke="#8acc7a" cx="110" cy="-732.3848" rx="58.8803" ry="18.2703"/>
<text text-anchor="middle" x="110" y="-728.5848" font-family="Times,serif" font-size="16.00" fill="#000000">Van Gogh</text>
</a>
</g>
</g>
<!-- The Starry Night -->
<g id="node10" class="node">
<title>The Starry Night</title>
<g id="a_node10"><a xlink:href="file:Obra The Starry Night.html" xlink:title="The Starry Night">
<ellipse fill="#ff6666" stroke="#ff6666" cx="463" cy="-742.3848" rx="88.2768" ry="18.2703"/>
<text text-anchor="middle" x="463" y="-738.5848" font-family="Times,serif" font-size="16.00" fill="#000000">The Starry Night</text>
</a>
</g>
</g>
<!-- Van Gogh&#45;&gt;The Starry Night -->
<g id="edge10" class="edge">
<title>Van Gogh&#45;&gt;The Starry Night</title>
<path fill="none" stroke="#000000" d="M168.687,-734.0473C222.0788,-735.5598 301.9411,-737.8222 365.0079,-739.6088"/>
<polygon fill="#000000" stroke="#000000" points="365.282,-743.1179 375.3771,-739.9025 365.4803,-736.1207 365.282,-743.1179"/>
<text text-anchor="middle" x="286.5" y="-744.5848" font-family="Times,serif" font-size="16.00" fill="#000000">produziu</text>
</g>
<!-- The Starry Night&#45;&gt;Van Gogh -->
<g id="edge12" class="edge">
<title>The Starry Night&#45;&gt;Van Gogh</title>
<path fill="none" stroke="#000000" d="M408.6129,-727.7776C386.0229,-722.421 359.4252,-717.0251 335,-714.3848 279.4009,-708.3747 215.8704,-714.6587 170.5287,-721.3978"/>
<polygon fill="#000000" stroke="#000000" points="169.9166,-717.9507 160.5645,-722.9296 170.9802,-724.8695 169.9166,-717.9507"/>
<text text-anchor="middle" x="286.5" y="-719.5848" font-family="Times,serif" font-size="16.00" fill="#000000">produzida por</text>
</g>
<!-- Exposição no Louvre&#45;&gt;Mona Lisa -->
<g id="edge15" class="edge">
<title>Exposição no Louvre&#45;&gt;Mona Lisa</title>
<path fill="none" stroke="#000000" d="M1028.9979,-417.1421C1022.98,-416.4559 1017.0093,-415.8603 1011.1737,-415.3848 978.8364,-412.7497 970.514,-412.7875 938.1737,-415.3848 933.0129,-415.7992 927.7526,-416.3007 922.4464,-416.8716"/>
<polygon fill="#000000" stroke="#000000" points="921.7342,-413.4304 912.1997,-418.0504 922.5342,-420.3845 921.7342,-413.4304"/>
<text text-anchor="middle" x="974.6737" y="-420.5848" font-family="Times,serif" font-size="16.00" fill="#000000">expõe</text>
</g>
</g>
</svg>
